<?xml version="1.0" encoding="utf-8"?>

<!DOCTYPE svg PUBLIC "-//W3C//DTD SVG 1.1//EN" "http://www.w3.org/Graphics/SVG/1.1/DTD/svg11.dtd">
<!-- Uploaded to: SVG Repo, www.svgrepo.com, Generator: SVG Repo Mixer Tools -->
<svg height="800px" width="800px" version="1.1" id="_x32_" xmlns="http://www.w3.org/2000/svg" xmlns:xlink="http://www.w3.org/1999/xlink" 
	 viewBox="0 0 512 512"  xml:space="preserve">
<style type="text/css">
	.st0{fill:#000000;}
</style>
<g>
	<path class="st0" d="M167.315,14.993c0-8.281-6.712-14.993-14.982-14.993h-5.514c-8.27,0-14.982,6.712-14.982,14.993V56.46h35.478
		V14.993z"/>
	<path class="st0" d="M238.261,14.993c0-8.281-6.711-14.993-14.982-14.993h-5.503c-8.271,0-14.982,6.712-14.982,14.993V56.46h35.468
		V14.993z"/>
	<path class="st0" d="M309.208,14.993c0-8.281-6.712-14.993-14.982-14.993h-5.503c-8.271,0-14.982,6.712-14.982,14.993V56.46h35.468
		V14.993z"/>
	<path class="st0" d="M380.164,14.993c0-8.281-6.711-14.993-14.982-14.993h-5.514c-8.27,0-14.981,6.712-14.981,14.993V56.46h35.477
		V14.993z"/>
	<path class="st0" d="M131.836,497.007c0,8.282,6.712,14.993,14.982,14.993h5.514c8.27,0,14.982-6.711,14.982-14.993V455.55h-35.478
		V497.007z"/>
	<path class="st0" d="M202.793,497.007c0,8.282,6.712,14.993,14.982,14.993h5.503c8.272,0,14.982-6.711,14.982-14.993V455.55
		h-35.468V497.007z"/>
	<path class="st0" d="M273.74,497.007c0,8.282,6.712,14.993,14.982,14.993h5.503c8.27,0,14.982-6.711,14.982-14.993V455.55H273.74
		V497.007z"/>
	<path class="st0" d="M344.686,497.007c0,8.282,6.711,14.993,14.981,14.993h5.514c8.271,0,14.982-6.711,14.982-14.993V455.55
		h-35.477V497.007z"/>
	<path class="st0" d="M497.018,131.836H455.55v35.478h41.467c8.27,0,14.982-6.712,14.982-14.993v-5.493
		C512,138.548,505.288,131.836,497.018,131.836z"/>
	<path class="st0" d="M497.018,202.793H455.55v35.468h41.467c8.27,0,14.982-6.712,14.982-14.982v-5.494
		C512,209.504,505.288,202.793,497.018,202.793z"/>
	<path class="st0" d="M497.018,273.739H455.55v35.468h41.467c8.27,0,14.982-6.711,14.982-14.992v-5.494
		C512,280.451,505.288,273.739,497.018,273.739z"/>
	<path class="st0" d="M497.018,344.685H455.55v35.479h41.467c8.27,0,14.982-6.712,14.982-14.993v-5.493
		C512,351.397,505.288,344.685,497.018,344.685z"/>
	<path class="st0" d="M0,146.829v5.493c0,8.281,6.712,14.993,14.982,14.993H56.46v-35.478H14.982C6.712,131.836,0,138.548,0,146.829
		z"/>
	<path class="st0" d="M0,217.785v5.494c0,8.27,6.712,14.982,14.982,14.982H56.46v-35.468H14.982C6.712,202.793,0,209.504,0,217.785z
		"/>
	<path class="st0" d="M0,288.721v5.494c0,8.281,6.712,14.992,14.982,14.992H56.46v-35.468H14.982C6.712,273.739,0,280.451,0,288.721
		z"/>
	<path class="st0" d="M0,359.679v5.493c0,8.281,6.712,14.993,14.982,14.993H56.46v-35.479H14.982C6.712,344.685,0,351.397,0,359.679
		z"/>
	<path class="st0" d="M350.87,348.011c6.598,0,11.121-2.788,13.021-8.55c1.125-3.346,1.506-7.063,1.506-34.777
		s-0.382-31.42-1.506-34.776c-1.9-5.762-6.423-8.55-13.021-8.55c-6.794,0-11.13,2.788-13.03,8.55
		c-1.126,3.356-1.508,7.063-1.508,34.776s0.382,31.431,1.508,34.777C339.74,345.223,344.076,348.011,350.87,348.011z"/>
	<path class="st0" d="M78.629,433.382h354.752V78.629H78.629V433.382z M312.181,265.262c5.277-16.17,18.503-25.855,38.69-25.855
		c20.187,0,33.403,9.685,38.679,25.855c1.88,5.575,2.83,11.347,2.83,39.422c0,28.085-0.95,33.847-2.83,39.423
		c-5.276,16.18-18.492,25.855-38.679,25.855c-20.186,0-33.412-9.675-38.69-25.855c-1.879-5.576-2.828-11.338-2.828-39.423
		C309.352,276.609,310.302,270.837,312.181,265.262z M235.173,260.429c0-1.114,0.383-1.858,1.322-2.601l21.519-15.242
		c0.94-0.753,2.065-1.136,3.398-1.136h21.125c1.136,0,1.89,0.754,1.89,1.87v122.739c0,1.105-0.754,1.859-1.89,1.859h-22.644
		c-1.125,0-1.879-0.754-1.879-1.859v-95.222h-0.382l-20.383,13.775c-1.125,0.744-2.076,0.361-2.076-1.115V260.429z M137.071,363.746
		l29.603-33.186l-27.558-31.039c-0.434-0.578-0.145-1.177,0.878-1.177h20.258c1.166,0,1.745,0.289,2.334,0.97l15.736,18.029h0.444
		l15.746-18.029c0.578-0.682,1.167-0.97,2.334-0.97h20.258c1.022,0,1.312,0.598,0.878,1.177l-27.704,31.039l29.748,33.186
		c0.424,0.599,0.134,1.178-0.878,1.178H198.88c-1.301,0-1.9-0.29-2.478-0.97l-17.635-20.28h-0.444l-17.781,20.28
		c-0.578,0.681-1.166,0.97-2.468,0.97h-20.124C136.926,364.924,136.493,364.345,137.071,363.746z"/>
</g>
</svg>