<?xml version="1.0" encoding="utf-8"?>

<!DOCTYPE svg PUBLIC "-//W3C//DTD SVG 1.1//EN" "http://www.w3.org/Graphics/SVG/1.1/DTD/svg11.dtd">
<!-- Uploaded to: SVG Repo, www.svgrepo.com, Generator: SVG Repo Mixer Tools -->
<svg height="800px" width="800px" version="1.1" id="_x32_" xmlns="http://www.w3.org/2000/svg" xmlns:xlink="http://www.w3.org/1999/xlink" 
	 viewBox="0 0 512 512"  xml:space="preserve">
<style type="text/css">
	.st0{fill:#000000;}
</style>
<g>
	<path class="st0" d="M497.897,215.708L426.05,105.736c-10.865-16.624-29.389-26.654-49.242-26.654H135.207
		c-19.869,0-38.392,10.03-49.258,26.654L14.103,215.708C4.908,229.789,0,246.243,0,263.058v112.877
		c0,15.678,6.401,30.032,16.69,40.292c10.259,10.288,24.614,16.697,40.299,16.69h398.022c31.474-0.015,56.975-25.502,56.989-56.982
		V263.058C512,246.243,507.092,229.789,497.897,215.708z M41.408,233.544l71.846-109.972c4.834-7.414,13.097-11.878,21.953-11.878
		h241.601c8.841,0,17.105,4.464,21.938,11.878l71.862,109.972c1.877,2.876,3.355,5.958,4.641,9.107H36.751
		C38.037,239.501,39.515,236.419,41.408,233.544z M479.388,375.935c-0.014,6.786-2.705,12.773-7.14,17.23
		c-4.465,4.442-10.452,7.133-17.238,7.14H56.989c-6.786-0.007-12.773-2.698-17.238-7.14c-4.435-4.457-7.126-10.444-7.14-17.23
		V263.058c0-0.281,0.059-0.562,0.059-0.842h446.658c0,0.281,0.059,0.562,0.059,0.842V375.935z"/>
	<circle class="st0" cx="304.917" cy="332.857" r="21.199"/>
	<circle class="st0" cx="397.859" cy="332.857" r="21.199"/>
</g>
</svg>