<?xml version="1.0" encoding="utf-8"?>

<!DOCTYPE svg PUBLIC "-//W3C//DTD SVG 1.1//EN" "http://www.w3.org/Graphics/SVG/1.1/DTD/svg11.dtd">
<!-- Uploaded to: SVG Repo, www.svgrepo.com, Generator: SVG Repo Mixer Tools -->
<svg height="800px" width="800px" version="1.1" id="_x32_" xmlns="http://www.w3.org/2000/svg" xmlns:xlink="http://www.w3.org/1999/xlink" 
	 viewBox="0 0 512 512"  xml:space="preserve">
<style type="text/css">
	.st0{fill:#000000;}
</style>
<g>
	<path class="st0" d="M256.004,204.715c18.793,0,34.035-15.241,34.035-34.034c0-18.793-15.242-34.034-34.035-34.034
		c-18.793,0-34.034,15.242-34.034,34.034C221.971,189.474,237.211,204.715,256.004,204.715z"/>
	<path class="st0" d="M403.125,0h-294.25c-19.5,0-35.31,15.81-35.31,35.31V476.69c0,19.5,15.81,35.31,35.31,35.31h294.25
		c19.5,0,35.31-15.81,35.31-35.31V35.31C438.435,15.81,422.625,0,403.125,0z M114.763,342.802h37.862
		c1.051-3.422,2.388-6.776,4.362-9.879l40.268-56.914c-36.906-20.629-61.897-60.043-61.897-105.328
		c0-66.63,54.018-120.646,120.646-120.646c66.63,0,120.647,54.017,120.647,120.646c0,60.741-44.94,110.862-103.354,119.267
		l-34.948,61.742v66.146H114.763V342.802z M136.772,47.086c0,10.526-8.543,19.06-19.069,19.06c-10.525,0-19.06-8.534-19.06-19.06
		s8.534-19.07,19.06-19.07C128.229,28.017,136.772,36.56,136.772,47.086z M117.703,445.853c10.526,0,19.069,8.543,19.069,19.069
		s-8.543,19.061-19.069,19.061c-10.525,0-19.06-8.535-19.06-19.061S107.177,445.853,117.703,445.853z M375.238,464.922
		c0-10.526,8.534-19.069,19.06-19.069c10.526,0,19.069,8.543,19.069,19.069s-8.543,19.061-19.069,19.061
		C383.772,483.983,375.238,475.448,375.238,464.922z M394.297,66.147c-10.525,0-19.06-8.534-19.06-19.06s8.534-19.07,19.06-19.07
		c10.526,0,19.069,8.544,19.069,19.07S404.823,66.147,394.297,66.147z"/>
	<path class="st0" d="M262.893,240.828c-7.681-4.888-17.845-2.595-22.707,5.069l-68.293,96.491
		c-6.638,10.448-3.544,24.302,6.914,30.932c10.448,6.637,24.31,3.542,30.949-6.915l58.206-102.887
		C272.823,255.854,270.53,245.682,262.893,240.828z"/>
</g>
</svg>