<?xml version="1.0" encoding="utf-8"?>

<!DOCTYPE svg PUBLIC "-//W3C//DTD SVG 1.1//EN" "http://www.w3.org/Graphics/SVG/1.1/DTD/svg11.dtd">
<!-- Uploaded to: SVG Repo, www.svgrepo.com, Generator: SVG Repo Mixer Tools -->
<svg version="1.1" id="_x32_" xmlns="http://www.w3.org/2000/svg" xmlns:xlink="http://www.w3.org/1999/xlink" 
	 viewBox="0 0 512 512"  xml:space="preserve">
<style type="text/css">
	.st0{fill:#000000;}
</style>
<g>
	<path class="st0" d="M105.037,367.926L105.037,367.926l-0.24,0.001v80.383c0,8.592,6.967,15.556,15.559,15.556h271.289
		c8.592,0,15.559-6.965,15.559-15.556v-80.383H106.275L105.037,367.926z"/>
	<rect x="136.203" y="108.761" class="st0" width="239.18" height="15.99"/>
	<polygon class="st0" points="136.443,156.731 136.443,156.732 136.203,156.732 136.203,173.386 375.383,173.386 375.383,156.732 
		137.422,156.732 	"/>
	<path class="st0" d="M431.846,207.957V48.134H81.836l-1.442-0.001v0.001h-0.24v159.822H0v191.951h80.277v-63.959h350.244
		l1.201,0.001v63.958H512V207.957H431.846z M176,268.134c0,11.045-8.953,20-20,20c-11.047,0-20-8.955-20-20c0-11.047,8.953-20,20-20
		C167.047,248.134,176,257.087,176,268.134z M112,268.134c0,11.045-8.953,20-20,20c-11.047,0-20-8.955-20-20
		c0-11.047,8.953-20,20-20C103.047,248.134,112,257.087,112,268.134z M112.135,204.7V80.115h287.73v124.586H113.074L112.135,204.7z"
		/>
</g>
</svg>