<?xml version='1.0' encoding='iso-8859-1'?>
<!DOCTYPE svg PUBLIC '-//W3C//DTD SVG 1.1//EN' 'http://www.w3.org/Graphics/SVG/1.1/DTD/svg11.dtd'>
<!-- Uploaded to: SVG Repo, www.svgrepo.com, Generator: SVG Repo Mixer Tools -->
<svg fill="#000000" height="800px" width="800px" version="1.1" xmlns="http://www.w3.org/2000/svg" viewBox="0 0 297 297" xmlns:xlink="http://www.w3.org/1999/xlink" enable-background="new 0 0 297 297">
  <g>
    <path d="m241.487,182.756l-86.032-76.683c-3.961-3.532-9.941-3.531-13.901-0.001l-86.039,76.683c-2.225,1.982-3.496,4.82-3.496,7.8v95.998c0,5.77 4.678,10.447 10.446,10.447h172.072c5.769,0 10.446-4.678 10.446-10.447v-95.998c2.84217e-14-2.98-1.272-5.817-3.496-7.799z"/>
    <path d="m94.944,90.969c14.306-14.307 33.326-22.185 53.557-22.185 20.23,0 39.251,7.878 53.557,22.185 2.04,2.04 4.713,3.059 7.387,3.059 2.673,0 5.347-1.02 7.388-3.059 4.08-4.079 4.08-10.694 0-14.775-18.252-18.252-42.519-28.304-68.331-28.304-25.813,0-50.079,10.052-68.331,28.304-4.08,4.08-4.08,10.695 0,14.775 4.08,4.079 10.693,4.079 14.773,0z"/>
    <path d="M250.695,42.33C223.398,15.033,187.104,0,148.501,0S73.602,15.033,46.305,42.33c-4.079,4.08-4.079,10.695,0,14.775   c2.041,2.039,4.714,3.06,7.388,3.06c2.674,0,5.347-1.021,7.388-3.06c23.351-23.353,54.397-36.212,87.42-36.212   c33.023,0,64.069,12.859,87.419,36.212c4.081,4.078,10.694,4.08,14.775,0C254.774,53.025,254.774,46.41,250.695,42.33z"/>
  </g>
</svg>